<?xml version="1.0" encoding="UTF-8" standalone="no"?>
<!-- Created with Inkscape (http://www.inkscape.org/) -->

<svg
   xmlns:dc="http://purl.org/dc/elements/1.1/"
   xmlns:cc="http://creativecommons.org/ns#"
   xmlns:rdf="http://www.w3.org/1999/02/22-rdf-syntax-ns#"
   xmlns:svg="http://www.w3.org/2000/svg"
   xmlns="http://www.w3.org/2000/svg"
   xmlns:sodipodi="http://sodipodi.sourceforge.net/DTD/sodipodi-0.dtd"
   xmlns:inkscape="http://www.inkscape.org/namespaces/inkscape"
   width="200mm"
   height="200mm"
   viewBox="0 0 200 200"
   version="1.1"
   id="svg16"
   inkscape:version="0.48.5 r10040"
   sodipodi:docname="LearnToWeb_Logo.svg">
  <defs
     id="defs10" />
  <sodipodi:namedview
     id="base"
     pagecolor="#ffffff"
     bordercolor="#666666"
     borderopacity="1.0"
     inkscape:pageopacity="0.0"
     inkscape:pageshadow="2"
     inkscape:zoom="1.1244792"
     inkscape:cx="503.79286"
     inkscape:cy="381.93639"
     inkscape:document-units="mm"
     inkscape:current-layer="layer1"
     showgrid="false"
     units="mm"
     inkscape:pagecheckerboard="false"
     inkscape:window-width="1920"
     inkscape:window-height="1057"
     inkscape:window-x="-8"
     inkscape:window-y="-8"
     inkscape:window-maximized="1"
     inkscape:measure-start="0,0"
     inkscape:measure-end="0,0" />
  <metadata
     id="metadata13">
    <rdf:RDF>
      <cc:Work
         rdf:about="">
        <dc:format>image/svg+xml</dc:format>
        <dc:type
           rdf:resource="http://purl.org/dc/dcmitype/StillImage" />
        <dc:title></dc:title>
      </cc:Work>
    </rdf:RDF>
  </metadata>
  <g
     inkscape:label="Vrstva 1"
     inkscape:groupmode="layer"
     id="layer1"
     transform="translate(0,-96.999992)">
    <path
       style="fill:#ffffff;fill-opacity:1;stroke:none;stroke-width:0.26499999000000002;stroke-linecap:butt;stroke-linejoin:miter;stroke-miterlimit:4;stroke-dasharray:none;stroke-opacity:1"
       d="m 121.05882,156.52939 c 2.8131,-59.702621 -39.604724,-26.52575 -44.292384,1.07311 -2.526489,14.87484 5.190744,73.20155 39.175464,102.9638 -8.94118,-18.94118 -18.261723,-38.05483 -21.428494,-47.3251 -2.982901,-8.73201 -12.971434,-36.93065 -7.807525,-54.35885 0.941177,-3.17647 4.250851,-8.67487 11.294111,-14 4.383528,-3.31421 12.823548,-6.70589 13.058838,14.47057 0.0617,5.54907 -1.57001,32.40852 -7.16596,48.40686 -8.015742,22.91626 -26.850974,50.02356 -37.358265,65.41638 35.016585,-21.2067 52.787635,-79.79096 54.524215,-116.64677 z"
       id="path4568"
       inkscape:connector-curvature="0"
       sodipodi:nodetypes="sscssssscs" />
    <path
       style="fill:#ffffff;fill-opacity:1;stroke:none;stroke-width:0.26458332000000001px;stroke-linecap:butt;stroke-linejoin:miter;stroke-opacity:1"
       d="m 116.47058,253 c 0,0 27.43294,-42.67626 48.94118,-53.88235 33.11263,-17.25214 -39.05882,-41.52942 -39.05882,-41.52942 0,0 41.25873,26.19464 35.88235,30.70589 C 125.08636,219.46524 116.47058,253 116.47058,253 Z"
       id="path4570"
       inkscape:connector-curvature="0"
       sodipodi:nodetypes="cscsc" />
    <path
       sodipodi:nodetypes="cscsc"
       inkscape:connector-curvature="0"
       id="path4572"
       d="m 79.543461,126.73244 c 0,0 -25.158314,37.40917 -40.971753,48.56112 -27.017576,19.05332 39.431944,48.89532 39.431944,48.89532 0,0 -40.435329,-32.9256 -35.302475,-38.12399 15.08455,-15.27714 36.842284,-59.33245 36.842284,-59.33245 z"
       style="fill:#ffffff;fill-opacity:1;stroke:none;stroke-width:0.26458332000000001px;stroke-linecap:butt;stroke-linejoin:miter;stroke-opacity:1" />
  </g>
</svg>
